<svg version="1.1" id="Layer_1" xmlns="http://www.w3.org/2000/svg" xmlns:xlink="http://www.w3.org/1999/xlink" x="0px" y="0px"
	 width="100%" viewBox="0 0 358 249" enable-background="new 0 0 358 249" xml:space="preserve">
<path fill="none" opacity="1.000000" stroke="#000000" stroke-linecap="round" stroke-linejoin="round" stroke-width="5.000000"
	d="
M260.000000,11.499999 
	C258.000000,11.666666 256.000061,11.978156 253.999985,11.978980 
	C191.666672,12.004647 129.333328,11.997102 67.000008,12.014229 
	C65.161758,12.014734 63.272572,11.664971 61.000000,12.709126 
	C61.000000,14.165319 61.000000,15.832660 61.000000,17.500000 
	C61.000000,84.833336 60.999283,152.166672 61.001152,219.500000 
	C61.001331,225.991226 61.008774,225.998749 67.500000,225.998886 
	C152.833328,226.000580 238.166672,226.002289 323.500000,225.985413 
	C325.434143,225.985031 327.456726,226.446045 329.375000,224.946884 
	C329.375000,154.500000 329.375000,83.750000 329.375000,12.000000 
	C306.509766,12.000000 283.754883,12.000000 261.000000,12.000000 
"/>
<path fill="none" opacity="1.000000" stroke="#000000" stroke-linecap="round" stroke-linejoin="round" stroke-width="5.000000"
	d="
M127.000000,3.000000 
	C127.000000,32.500942 127.000000,62.001884 127.000000,92.000000 
	C128.998459,92.000000 130.499237,92.000000 132.000000,92.000000 
	C154.666672,92.000000 177.333328,91.993324 199.999985,92.012070 
	C201.910873,92.013649 203.802307,92.079346 205.500000,91.000000 
"/>
<path fill="none" opacity="1.000000" stroke="#000000" stroke-linecap="round" stroke-linejoin="round" stroke-width="5.000000"
	d="
M208.500000,93.500000 
	C209.319092,99.231773 212.689850,103.923264 215.088440,108.957863 
	C226.725876,133.384537 238.667175,157.666412 250.499603,182.000198 
	C253.335495,187.832291 256.090607,193.705399 259.032196,199.483612 
	C260.496246,202.359482 261.188477,205.279266 261.024811,208.501266 
	C260.737274,214.162476 261.477234,219.857178 260.500000,225.500000 
"/>
<path fill="none" opacity="1.000000" stroke="#000000" stroke-linecap="round" stroke-linejoin="round" stroke-width="6.000000"
	d="
M133.500000,170.500000 
	C127.782898,165.799850 124.308258,159.271652 120.172112,153.379181 
	C117.188225,149.128250 114.280022,147.321243 108.998772,147.372131 
	C80.834717,147.643539 52.666668,147.500000 24.500000,147.500000 
"/>
<path fill="none" opacity="1.000000" stroke="#000000" stroke-linecap="round" stroke-linejoin="round" stroke-width="5.000000"
	d="
M261.000000,3.000000 
	C261.000000,32.000000 261.000000,61.000000 261.000000,90.000000 
"/>
<path fill="none" opacity="1.000000" stroke="#000000" stroke-linecap="round" stroke-linejoin="round" stroke-width="4.000000"
	d="
M195.000000,25.500000 
	C190.935516,27.841444 186.268539,28.821951 184.278198,34.421158 
	C182.170502,40.350544 185.795090,47.294945 191.519623,49.447819 
	C197.255493,51.604961 204.654480,47.510696 206.500015,41.500004 
	C208.199554,35.964787 205.375748,29.883373 200.000092,27.499802 
	C198.499512,26.834438 197.000000,26.166666 195.500000,25.499998 
"/>
<path fill="none" opacity="1.000000" stroke="#000000" stroke-linecap="round" stroke-linejoin="round" stroke-width="5.000000"
	d="
M163.000000,150.000000 
	C158.333328,150.000000 153.012848,148.585785 149.167984,150.363358 
	C144.518921,152.512741 143.248917,158.865585 139.918320,162.933121 
	C138.030502,165.238617 137.066910,168.212952 134.516953,170.023880 
	C132.808838,171.236954 133.427795,172.917908 134.000000,174.500000 
"/>
<path fill="none" opacity="1.000000" stroke="#000000" stroke-linecap="round" stroke-linejoin="round" stroke-width="5.000000"
	d="
M237.000000,92.000000 
	C227.672516,92.468338 218.308044,91.122169 208.986053,92.665749 
	C207.472687,92.916336 206.128922,91.859627 205.450729,90.018150 
	C202.454407,81.882408 198.295853,74.272865 194.500000,66.500000 
"/>
<path fill="none" opacity="1.000000" stroke="#000000" stroke-linecap="round" stroke-linejoin="round" stroke-width="5.000000"
	d="
M260.500000,226.500000 
	C261.557007,234.147308 260.750732,241.835129 261.000000,249.500000 
"/>
<path fill="none" opacity="1.000000" stroke="#000000" stroke-linecap="round" stroke-linejoin="round" stroke-width="5.000000"
	d="
M23.000000,125.000000 
	C23.000000,140.000000 23.000000,155.000000 23.000000,170.000000 
"/>
<path fill="none" opacity="1.000000" stroke="#000000" stroke-linecap="round" stroke-linejoin="round" stroke-width="6.000000"
	d="
M195.500000,12.500000 
	C195.500000,16.666666 195.500000,20.833334 195.500000,25.000000 
"/>
<path fill="none" opacity="1.000000" stroke="#000000" stroke-linecap="round" stroke-linejoin="round" stroke-width="5.000000"
	d="
M195.500000,149.500000 
	C191.370209,150.588486 187.162231,149.722443 183.000000,150.000000 
"/>
<path fill="none" opacity="1.000000" stroke="#000000" stroke-linecap="round" stroke-linejoin="round" stroke-width="5.000000"
	d="
M226.000000,150.000000 
	C221.837769,149.722443 217.629791,150.588486 213.500000,149.500000 
"/>
</svg>